HIERARCHY
ROOT Hips
{
  OFFSET 193.481 97.1834 185.277
  CHANNELS 6 Xposition Yposition Zposition Zrotation Xrotation Yrotation
  JOINT ToSpine
  {
    OFFSET -0.0105055 1.38907 -7.13956
    CHANNELS 3 Zrotation Xrotation Yrotation
    JOINT Spine
    {
      OFFSET 0.0105055 10 1
      CHANNELS 3 Zrotation Xrotation Yrotation
      JOINT Spine1
      {
        OFFSET 0 12 1.60637
        CHANNELS 3 Zrotation Xrotation Yrotation
        JOINT Neck
        {
          OFFSET 0 27 2.26658
          CHANNELS 3 Zrotation Xrotation Yrotation
          JOINT Head
          {
            OFFSET 0 9 2.12705
            CHANNELS 3 Zrotation Xrotation Yrotation
            End Site
            {
              OFFSET 0 11 2
            }
          }
        }
        JOINT LeftShoulder
        {
          OFFSET 8 19.6109 2.86452
          CHANNELS 3 Zrotation Xrotation Yrotation
          JOINT LeftArm
          {
            OFFSET 12 1 0.681055
            CHANNELS 3 Zrotation Xrotation Yrotation
            JOINT LeftForeArm
            {
              OFFSET 19 0 -1.52608
              CHANNELS 3 Zrotation Xrotation Yrotation
              JOINT LeftHand
              {
                OFFSET 23 0 0
                CHANNELS 3 Zrotation Xrotation Yrotation
                End Site
                {
                  OFFSET 10 0 0
                }
              }
            }
          }
        }
        JOINT RightShoulder
        {
          OFFSET -8 19.6109 2.86452
          CHANNELS 3 Zrotation Xrotation Yrotation
          JOINT RightArm
          {
            OFFSET -12 1 0.681055
            CHANNELS 3 Zrotation Xrotation Yrotation
            JOINT RightForeArm
            {
              OFFSET -19 0 -1.52608
              CHANNELS 3 Zrotation Xrotation Yrotation
              JOINT RightHand
              {
                OFFSET -23 0 0
                CHANNELS 3 Zrotation Xrotation Yrotation
                End Site
                {
                  OFFSET -10 0 0
                }
              }
            }
          }
        }
      }
    }
  }
  JOINT LeftUpLeg
  {
    OFFSET 9 -7.17245 0
    CHANNELS 3 Zrotation Xrotation Yrotation
    JOINT LeftLeg
    {
      OFFSET 0 -44.1113 0
      CHANNELS 3 Zrotation Xrotation Yrotation
      JOINT LeftFoot
      {
        OFFSET 0 -36.1829 0
        CHANNELS 3 Zrotation Xrotation Yrotation
        JOINT LeftToeBase
        {
          OFFSET 0 -4.84184 13
          CHANNELS 3 Zrotation Xrotation Yrotation
          End Site
          {
            OFFSET 0 1 6
          }
        }
      }
    }
  }
  JOINT RightUpLeg
  {
    OFFSET -9 -7.17245 0
    CHANNELS 3 Zrotation Xrotation Yrotation
    JOINT RightLeg
    {
      OFFSET 0 -44.0551 0
      CHANNELS 3 Zrotation Xrotation Yrotation
      JOINT RightFoot
      {
        OFFSET 0 -36.1469 0
        CHANNELS 3 Zrotation Xrotation Yrotation
        JOINT RightToeBase
        {
          OFFSET 0 -4.92256 13
          CHANNELS 3 Zrotation Xrotation Yrotation
          End Site
          {
            OFFSET 0 1 6
          }
        }
      }
    }
  }
}
MOTION
Frames:	10
Frame Time:	0.0333333
-100.92 98.0311 -87.4443 -8.39561 5.5689 -132.915 0 0 0 2.68075 5.96957 0.990663 -6.13576 4.84337 1.87485 5.92077 -4.78935 1.525 -3.07647 -1.8119 3.63704 -33.0282 3.60063 -5.6943 -34.86 23.09 -13.4628 -7.63059 -23.9376 -14.7417 -9.64264 0.184833 -2.19107 27.2047 6.25864 15.129 40.9926 11.095 19.1624 -10.8605 7.13815 57.0693 0.453449 0.0227224 5.73736 -4.00353 -0.954656 7.51396 -4.25852 23.9797 -10.867 15.5043 -5.8615 0.798623 0.663029 -8.05465 -0.77051 -5.7048 -7.65324 -1.00784 -9.98267e-008 59.967 2.79688 -28.3101 -0.545039 -0.137462 4.5763 -18.176 -8.6501 
-103.242 98.4961 -89.6518 -7.06124 5.31225 -129.158 0 0 0 1.58456 5.73904 -0.0697228 -4.15771 4.37915 0.330069 7.61295 -5.16752 0.621221 -3.95529 -1.89138 3.34757 -32.1945 3.67749 -6.09439 -29.3579 26.3162 -27.277 -8.59762 -24.2664 -16.0318 -9.32696 0.174841 -2.14311 27.5773 6.34048 15.1697 42.3474 21.4261 10.8088 13.1985 -14.2739 43.5667 -8.73426 -1.84767 23.8459 -3.32298 0.838324 6.02775 -3.4481 22.0297 -13.3278 15.9106 -5.82626 0.814882 0.664698 -9.43388 -0.254367 -4.49073 -11.5797 -4.19415 -2.02539e-008 52.2413 -0.446699 -26.3239 -0.255336 -0.0597099 4.36116 -17.111 -8.81373 
-105.557 98.7442 -91.9147 -6.16108 5.11923 -125.512 0 0 0 0.314724 6.03667 -0.807215 -2.1648 3.69737 -0.755686 8.81502 -5.59154 -0.48315 -4.31018 -2.35473 2.6062 -31.0398 3.96197 -7.15241 -24.689 26.0478 -40.8947 -7.48658 -19.1549 -15.0991 -8.48102 0.170066 -2.29335 27.2114 6.15754 14.829 43.8332 13.6762 4.10996 -3.89466 5.18213 37.0069 -0.626328 -0.052826 9.64201 -2.3467 3.18101 6.17758 -2.69131 19.7309 -16.8566 16.4731 -6.31047 0.914369 0.787235 -9.80906 -0.881115 -3.95475 -14.0458 -6.99542 -1.03973e-007 41.7709 -2.11661 -24.94 1.22359 0.270601 4.12079 -15.7468 -7.35749 
-108.002 98.4906 -94.269 -5.91184 4.44267 -122.916 0 0 0 -1.2092 6.87671 -1.34515 -1.46037 2.45079 -1.38302 10.6298 -6.47711 -1.47307 -5.00926 -2.06088 2.17463 -28.579 4.11085 -8.31843 -22.8117 23.9347 -52.0704 -6.15229 -13.0715 -14.2177 -8.32718 0.212689 -2.92106 28.0898 6.25226 14.6497 44.9525 13.4019 -1.04986 -2.7842 5.84626 25.5215 3.00555 0.143608 5.46986 -2.22575 5.42403 6.27371 -1.94225 18.4715 -19.3134 15.9994 -8.33209 1.17298 0.901032 -9.12737 -1.83693 -4.2431 -15.3665 -7.93649 -1.13167e-008 29.7319 -1.37541 -24.6292 4.24701 0.927537 4.22531 -16.2903 -7.73762 
-110.667 98.0956 -96.7918 -6.27975 3.8717 -120.772 0 0 0 -3.05957 7.314 -1.77433 -0.278287 2.34881 -1.99486 10.9409 -7.03479 -1.89427 -4.70906 -2.22501 1.72337 -26.6482 4.24619 -9.39814 -20.7731 22.1814 -60.7911 -5.43033 -10.5152 -15.6541 -7.4212 0.230685 -3.55592 28.3875 6.21303 14.3879 46.2334 11.9992 -4.06236 2.47424 -0.630808 11.5406 1.69731 0.0570048 3.84688 -1.97071 8.59063 6.68767 -1.85313 17.1035 -21.7943 16.9956 -9.66053 1.44675 0.954371 -9.45967 -2.06398 -4.71249 -14.9264 -6.82894 0.785607 16.6624 -1.88588 -24.5406 8.9335 1.94673 4.35675 -17.0504 -8.56266 
-113.437 97.3104 -99.3619 -7.02028 2.94821 -119.196 0 0 0 -4.98193 7.56161 -2.28198 0.192743 2.41072 -2.56361 11.2996 -7.1824 -1.99869 -4.6242 -2.80882 1.65449 -24.1804 4.2266 -10.3297 -19.8514 20.2197 -67.1017 -4.21201 -8.72872 -18.1269 -7.04488 0.211592 -3.43637 28.9759 6.43779 14.7264 46.8617 9.27679 -6.60674 4.33543 -7.40978 -0.528836 1.87538 0.0158238 0.96677 -1.89918 11.5802 7.33877 -2.00785 16.7794 -24.0803 16.7168 -12.5984 1.85835 1.21158 -8.7344 -3.84033 -5.78445 -14.9869 -6.53625 1.36249 7.56182 -2.26593 -22.9452 10.4331 2.12307 4.20406 -16.2271 -8.11846 
-116.377 96.24 -102.123 -7.57334 2.55435 -119.217 0 0 0 -6.07507 7.25967 -2.39183 0.268099 2.82956 -2.63251 11.1723 -7.35451 -1.93881 -4.67498 -2.67662 1.68156 -22.545 4.07486 -10.5478 -18.331 18.1587 -71.6966 -3.02807 -6.97526 -21.5412 -7.17535 0.170751 -2.72285 28.4231 6.54847 15.3204 48.247 3.41561 -10.7885 2.64002 -11.4304 -4.67623 3.77907 -0.0953272 -2.88892 -1.33578 15.0636 8.709 -2.74987 16.5871 -25.6421 18.2727 -15.2827 2.47213 1.23544 -9.01437 -3.92769 -5.51695 -16.7475 -6.49947 0.993509 5.70971 -4.34943 -16.3939 7.14305 1.03025 3.92096 -14.7968 -7.70201 
-119.475 95.0356 -104.801 -7.98946 2.24892 -118.988 0 0 0 -6.35491 7.09118 -2.69577 0.0917382 2.9313 -2.92087 10.1161 -7.21434 -1.53784 -3.89946 -2.9279 1.66918 -22.3497 4.00632 -10.4016 -21.1248 15.9485 -72.7704 -1.57663 -3.21506 -26.1404 -8.3277 0.228036 -3.13154 27.39 6.24328 14.9859 49.9431 -0.860299 -16.449 1.51166 -12.6329 -2.80835 3.80754 -0.116445 -3.50214 -0.827087 18.1932 9.73912 -3.03902 16.998 -27.2067 19.4122 -17.8725 3.08124 1.23448 -9.52951 -3.81154 -5.13828 -17.2761 -6.80891 1.39042 5.86165 -8.10117 -13.2239 3.06243 0.355065 3.68212 -13.6287 -7.07335 
-122.653 94.1194 -107.449 -8.12811 2.12932 -118.942 0 0 0 -6.31089 6.35451 -3.19447 0.159747 3.40969 -3.53745 9.21072 -6.57693 -0.959561 -3.49716 -2.85765 1.98673 -23.6468 3.97647 -9.73688 -23.6758 14.883 -71.4296 0.354495 0.565971 -32.0616 -8.31646 0.307091 -4.22203 25.8159 5.76023 14.3742 51.5 -3.42974 -21.1655 1.53452 -15.7376 0.475019 3.97244 -0.0283315 -0.816927 -0.260463 21.047 10.3158 -2.99316 17.3215 -28.0836 18.8671 -19.6493 3.29621 1.42783 -10.0561 -4.95065 -4.52417 -16.4932 -6.98045 2.21821 7.24978 -8.29676 -12.603 2.34847 0.259372 3.96838 -15.1609 -9.97586 
-125.591 94.4423 -109.971 -7.28432 2.91661 -118.441 0 0 0 -4.84229 4.71871 -4.04138 0.609087 4.91559 -4.43734 8.73537 -5.34457 -0.640672 -3.77529 -3.40133 2.31244 -25.2506 4.05683 -9.35009 -27.0902 14.6544 -67.2039 3.41157 4.14451 -39.5174 -8.52975 0.310339 -4.15968 24.3404 5.02013 12.8166 52.5215 -4.8066 -23.7558 1.88492 -17.1088 2.91611 4.9692 0.0252088 0.580955 1.56631 23.7334 10.3509 -2.56538 15.3918 -29.1276 15.8487 -17.6542 2.47661 1.42596 -12.263 -4.5216 -2.76793 -16.5824 -6.30028 2.39417 9.08644 -7.61209 -18.7563 9.62619 1.59348 4.45354 -18.0226 -11.0441 
